<mxfile host="app.diagrams.net" modified="2023-05-09T14:25:03.023Z" agent="Mozilla/5.0 (Windows NT 10.0; Win64; x64) AppleWebKit/537.36 (KHTML, like Gecko) Chrome/112.0.0.0 Safari/537.36" etag="1RrfX4CGKRHVrSnjsNuo" version="21.2.9" type="github">
  <diagram name="第 1 页" id="kzGc7oRQ1Pldm_sT-_sH">
    <mxGraphModel dx="1055" dy="674" grid="1" gridSize="10" guides="1" tooltips="1" connect="1" arrows="1" fold="1" page="1" pageScale="1" pageWidth="827" pageHeight="1169" background="#FFFFFF" math="0" shadow="0">
      <root>
        <mxCell id="0" />
        <mxCell id="1" parent="0" />
        <mxCell id="zvotqxtV_hxMc-tcyJg2-2" value="" style="rounded=0;whiteSpace=wrap;html=1;fillColor=none;dashed=1;" vertex="1" parent="1">
          <mxGeometry x="234" y="190" width="360" height="360" as="geometry" />
        </mxCell>
        <mxCell id="zvotqxtV_hxMc-tcyJg2-44" value="" style="rounded=0;whiteSpace=wrap;html=1;fillColor=none;dashed=1;" vertex="1" parent="1">
          <mxGeometry x="220" y="660" width="360" height="120" as="geometry" />
        </mxCell>
        <mxCell id="zvotqxtV_hxMc-tcyJg2-27" style="edgeStyle=orthogonalEdgeStyle;rounded=0;orthogonalLoop=1;jettySize=auto;html=1;entryX=0;entryY=0.5;entryDx=0;entryDy=0;" edge="1" parent="1" source="zvotqxtV_hxMc-tcyJg2-3" target="zvotqxtV_hxMc-tcyJg2-7">
          <mxGeometry relative="1" as="geometry" />
        </mxCell>
        <mxCell id="zvotqxtV_hxMc-tcyJg2-3" value="Actor" style="shape=umlActor;verticalLabelPosition=bottom;verticalAlign=top;html=1;outlineConnect=0;" vertex="1" parent="1">
          <mxGeometry x="110" y="310" width="30" height="60" as="geometry" />
        </mxCell>
        <mxCell id="zvotqxtV_hxMc-tcyJg2-21" style="edgeStyle=orthogonalEdgeStyle;rounded=0;orthogonalLoop=1;jettySize=auto;html=1;entryX=0;entryY=0;entryDx=70;entryDy=55;entryPerimeter=0;" edge="1" parent="1" source="zvotqxtV_hxMc-tcyJg2-4" target="zvotqxtV_hxMc-tcyJg2-12">
          <mxGeometry relative="1" as="geometry" />
        </mxCell>
        <mxCell id="zvotqxtV_hxMc-tcyJg2-4" value="第三方服务&lt;br&gt;Alipay/WechatPay/Paypal" style="rounded=0;whiteSpace=wrap;html=1;fillColor=none;" vertex="1" parent="1">
          <mxGeometry x="700" y="222.5" width="160" height="60" as="geometry" />
        </mxCell>
        <mxCell id="zvotqxtV_hxMc-tcyJg2-5" value="payments&lt;br&gt;table" style="shape=cylinder3;whiteSpace=wrap;html=1;boundedLbl=1;backgroundOutline=1;size=15;" vertex="1" parent="1">
          <mxGeometry x="320" y="310" width="50" height="60" as="geometry" />
        </mxCell>
        <mxCell id="zvotqxtV_hxMc-tcyJg2-26" style="edgeStyle=orthogonalEdgeStyle;rounded=0;orthogonalLoop=1;jettySize=auto;html=1;" edge="1" parent="1" source="zvotqxtV_hxMc-tcyJg2-6" target="zvotqxtV_hxMc-tcyJg2-9">
          <mxGeometry relative="1" as="geometry" />
        </mxCell>
        <mxCell id="zvotqxtV_hxMc-tcyJg2-29" style="edgeStyle=orthogonalEdgeStyle;rounded=0;orthogonalLoop=1;jettySize=auto;html=1;" edge="1" parent="1" source="zvotqxtV_hxMc-tcyJg2-6" target="zvotqxtV_hxMc-tcyJg2-4">
          <mxGeometry relative="1" as="geometry" />
        </mxCell>
        <mxCell id="zvotqxtV_hxMc-tcyJg2-6" value="paymentExecutor&lt;br&gt;fleet" style="rounded=0;whiteSpace=wrap;html=1;" vertex="1" parent="1">
          <mxGeometry x="430" y="222.5" width="120" height="60" as="geometry" />
        </mxCell>
        <mxCell id="zvotqxtV_hxMc-tcyJg2-25" style="edgeStyle=orthogonalEdgeStyle;rounded=0;orthogonalLoop=1;jettySize=auto;html=1;entryX=0.5;entryY=0;entryDx=0;entryDy=0;entryPerimeter=0;" edge="1" parent="1" source="zvotqxtV_hxMc-tcyJg2-7" target="zvotqxtV_hxMc-tcyJg2-5">
          <mxGeometry relative="1" as="geometry" />
        </mxCell>
        <mxCell id="zvotqxtV_hxMc-tcyJg2-28" style="edgeStyle=orthogonalEdgeStyle;rounded=0;orthogonalLoop=1;jettySize=auto;html=1;" edge="1" parent="1" source="zvotqxtV_hxMc-tcyJg2-7" target="zvotqxtV_hxMc-tcyJg2-6">
          <mxGeometry relative="1" as="geometry" />
        </mxCell>
        <mxCell id="zvotqxtV_hxMc-tcyJg2-31" value="" style="edgeStyle=orthogonalEdgeStyle;rounded=0;orthogonalLoop=1;jettySize=auto;html=1;" edge="1" parent="1" source="zvotqxtV_hxMc-tcyJg2-7" target="zvotqxtV_hxMc-tcyJg2-6">
          <mxGeometry relative="1" as="geometry" />
        </mxCell>
        <mxCell id="zvotqxtV_hxMc-tcyJg2-33" style="edgeStyle=orthogonalEdgeStyle;rounded=0;orthogonalLoop=1;jettySize=auto;html=1;exitX=1;exitY=0.5;exitDx=0;exitDy=0;" edge="1" parent="1" source="zvotqxtV_hxMc-tcyJg2-7" target="zvotqxtV_hxMc-tcyJg2-10">
          <mxGeometry relative="1" as="geometry" />
        </mxCell>
        <mxCell id="zvotqxtV_hxMc-tcyJg2-37" style="edgeStyle=orthogonalEdgeStyle;rounded=0;orthogonalLoop=1;jettySize=auto;html=1;entryX=0.5;entryY=0;entryDx=0;entryDy=0;entryPerimeter=0;" edge="1" parent="1" source="zvotqxtV_hxMc-tcyJg2-7" target="zvotqxtV_hxMc-tcyJg2-36">
          <mxGeometry relative="1" as="geometry" />
        </mxCell>
        <mxCell id="zvotqxtV_hxMc-tcyJg2-7" value="paymentService&lt;br&gt;fleet" style="rounded=0;whiteSpace=wrap;html=1;" vertex="1" parent="1">
          <mxGeometry x="260" y="225" width="100" height="55" as="geometry" />
        </mxCell>
        <mxCell id="zvotqxtV_hxMc-tcyJg2-9" value="payment_order&lt;br&gt;table" style="shape=cylinder3;whiteSpace=wrap;html=1;boundedLbl=1;backgroundOutline=1;size=15;" vertex="1" parent="1">
          <mxGeometry x="465" y="310" width="50" height="60" as="geometry" />
        </mxCell>
        <mxCell id="zvotqxtV_hxMc-tcyJg2-24" style="edgeStyle=orthogonalEdgeStyle;rounded=0;orthogonalLoop=1;jettySize=auto;html=1;" edge="1" parent="1" source="zvotqxtV_hxMc-tcyJg2-10" target="zvotqxtV_hxMc-tcyJg2-14">
          <mxGeometry relative="1" as="geometry" />
        </mxCell>
        <mxCell id="zvotqxtV_hxMc-tcyJg2-10" value="ledgerService&lt;br&gt;fleet" style="rounded=0;whiteSpace=wrap;html=1;" vertex="1" parent="1">
          <mxGeometry x="325" y="390" width="120" height="60" as="geometry" />
        </mxCell>
        <mxCell id="zvotqxtV_hxMc-tcyJg2-22" style="edgeStyle=orthogonalEdgeStyle;rounded=0;orthogonalLoop=1;jettySize=auto;html=1;entryX=1;entryY=0.5;entryDx=0;entryDy=0;" edge="1" parent="1" source="zvotqxtV_hxMc-tcyJg2-12" target="zvotqxtV_hxMc-tcyJg2-10">
          <mxGeometry relative="1" as="geometry" />
        </mxCell>
        <mxCell id="zvotqxtV_hxMc-tcyJg2-12" value="Recon-&lt;br&gt;ciliation&lt;br&gt;file" style="shape=note;whiteSpace=wrap;html=1;backgroundOutline=1;darkOpacity=0.05;" vertex="1" parent="1">
          <mxGeometry x="660" y="380" width="70" height="80" as="geometry" />
        </mxCell>
        <mxCell id="zvotqxtV_hxMc-tcyJg2-14" value="ledger_table" style="shape=cylinder3;whiteSpace=wrap;html=1;boundedLbl=1;backgroundOutline=1;size=15;" vertex="1" parent="1">
          <mxGeometry x="360" y="470" width="50" height="60" as="geometry" />
        </mxCell>
        <mxCell id="zvotqxtV_hxMc-tcyJg2-30" value="Payment system" style="text;html=1;strokeColor=none;fillColor=none;align=center;verticalAlign=middle;whiteSpace=wrap;rounded=0;fontStyle=1" vertex="1" parent="1">
          <mxGeometry x="230" y="190" width="130" height="30" as="geometry" />
        </mxCell>
        <mxCell id="zvotqxtV_hxMc-tcyJg2-34" style="edgeStyle=orthogonalEdgeStyle;rounded=0;orthogonalLoop=1;jettySize=auto;html=1;exitX=0.5;exitY=1;exitDx=0;exitDy=0;" edge="1" parent="1" source="zvotqxtV_hxMc-tcyJg2-2" target="zvotqxtV_hxMc-tcyJg2-2">
          <mxGeometry relative="1" as="geometry" />
        </mxCell>
        <mxCell id="zvotqxtV_hxMc-tcyJg2-36" value="account&lt;br&gt;table" style="shape=cylinder3;whiteSpace=wrap;html=1;boundedLbl=1;backgroundOutline=1;size=15;" vertex="1" parent="1">
          <mxGeometry x="240" y="310" width="50" height="60" as="geometry" />
        </mxCell>
        <mxCell id="zvotqxtV_hxMc-tcyJg2-40" value="原商家支付&lt;br&gt;页面(checkoutpage)" style="rounded=0;whiteSpace=wrap;html=1;" vertex="1" parent="1">
          <mxGeometry x="245" y="700" width="80" height="60" as="geometry" />
        </mxCell>
        <mxCell id="zvotqxtV_hxMc-tcyJg2-41" value="第三方服务&lt;br&gt;Alipay/WechatPay/Paypal" style="rounded=0;whiteSpace=wrap;html=1;fillColor=none;" vertex="1" parent="1">
          <mxGeometry x="500" y="860" width="155" height="60" as="geometry" />
        </mxCell>
        <mxCell id="zvotqxtV_hxMc-tcyJg2-47" style="edgeStyle=orthogonalEdgeStyle;rounded=0;orthogonalLoop=1;jettySize=auto;html=1;" edge="1" parent="1" source="zvotqxtV_hxMc-tcyJg2-42" target="zvotqxtV_hxMc-tcyJg2-40">
          <mxGeometry relative="1" as="geometry" />
        </mxCell>
        <mxCell id="zvotqxtV_hxMc-tcyJg2-42" value="Actor" style="shape=umlActor;verticalLabelPosition=bottom;verticalAlign=top;html=1;outlineConnect=0;" vertex="1" parent="1">
          <mxGeometry x="280" y="610" width="10" height="20" as="geometry" />
        </mxCell>
        <mxCell id="zvotqxtV_hxMc-tcyJg2-80" style="edgeStyle=orthogonalEdgeStyle;rounded=0;orthogonalLoop=1;jettySize=auto;html=1;" edge="1" parent="1" source="zvotqxtV_hxMc-tcyJg2-49" target="zvotqxtV_hxMc-tcyJg2-50">
          <mxGeometry relative="1" as="geometry" />
        </mxCell>
        <mxCell id="zvotqxtV_hxMc-tcyJg2-49" value="第三方支付&lt;br&gt;服务支付页面" style="rounded=0;whiteSpace=wrap;html=1;" vertex="1" parent="1">
          <mxGeometry x="350" y="700" width="80" height="60" as="geometry" />
        </mxCell>
        <mxCell id="zvotqxtV_hxMc-tcyJg2-50" value="支付完成后&lt;br&gt;回调商家的页面" style="rounded=0;whiteSpace=wrap;html=1;" vertex="1" parent="1">
          <mxGeometry x="480" y="700" width="80" height="60" as="geometry" />
        </mxCell>
        <mxCell id="zvotqxtV_hxMc-tcyJg2-67" style="edgeStyle=orthogonalEdgeStyle;rounded=0;orthogonalLoop=1;jettySize=auto;html=1;" edge="1" parent="1" source="zvotqxtV_hxMc-tcyJg2-51" target="zvotqxtV_hxMc-tcyJg2-62">
          <mxGeometry relative="1" as="geometry" />
        </mxCell>
        <mxCell id="zvotqxtV_hxMc-tcyJg2-51" value="paymentExecutor&lt;br&gt;fleet" style="rounded=0;whiteSpace=wrap;html=1;" vertex="1" parent="1">
          <mxGeometry x="310" y="860" width="120" height="60" as="geometry" />
        </mxCell>
        <mxCell id="zvotqxtV_hxMc-tcyJg2-54" value="" style="edgeStyle=orthogonalEdgeStyle;rounded=0;orthogonalLoop=1;jettySize=auto;html=1;" edge="1" parent="1" source="zvotqxtV_hxMc-tcyJg2-52" target="zvotqxtV_hxMc-tcyJg2-51">
          <mxGeometry relative="1" as="geometry" />
        </mxCell>
        <mxCell id="zvotqxtV_hxMc-tcyJg2-65" style="edgeStyle=orthogonalEdgeStyle;rounded=0;orthogonalLoop=1;jettySize=auto;html=1;entryX=0.5;entryY=0;entryDx=0;entryDy=0;entryPerimeter=0;" edge="1" parent="1" source="zvotqxtV_hxMc-tcyJg2-52" target="zvotqxtV_hxMc-tcyJg2-63">
          <mxGeometry relative="1" as="geometry" />
        </mxCell>
        <mxCell id="zvotqxtV_hxMc-tcyJg2-66" style="edgeStyle=orthogonalEdgeStyle;rounded=0;orthogonalLoop=1;jettySize=auto;html=1;" edge="1" parent="1" source="zvotqxtV_hxMc-tcyJg2-52" target="zvotqxtV_hxMc-tcyJg2-61">
          <mxGeometry relative="1" as="geometry" />
        </mxCell>
        <mxCell id="zvotqxtV_hxMc-tcyJg2-52" value="paymentService&lt;br&gt;fleet" style="rounded=0;whiteSpace=wrap;html=1;" vertex="1" parent="1">
          <mxGeometry x="170" y="862.5" width="100" height="55" as="geometry" />
        </mxCell>
        <mxCell id="zvotqxtV_hxMc-tcyJg2-57" value="" style="endArrow=classic;html=1;rounded=0;exitX=0.5;exitY=1;exitDx=0;exitDy=0;entryX=0.5;entryY=0;entryDx=0;entryDy=0;" edge="1" parent="1" source="zvotqxtV_hxMc-tcyJg2-40" target="zvotqxtV_hxMc-tcyJg2-52">
          <mxGeometry width="50" height="50" relative="1" as="geometry">
            <mxPoint x="240" y="830" as="sourcePoint" />
            <mxPoint x="280" y="790" as="targetPoint" />
          </mxGeometry>
        </mxCell>
        <mxCell id="zvotqxtV_hxMc-tcyJg2-61" value="payments&lt;br&gt;table" style="shape=cylinder3;whiteSpace=wrap;html=1;boundedLbl=1;backgroundOutline=1;size=15;" vertex="1" parent="1">
          <mxGeometry x="220" y="960" width="50" height="60" as="geometry" />
        </mxCell>
        <mxCell id="zvotqxtV_hxMc-tcyJg2-62" value="payment_order&lt;br&gt;table" style="shape=cylinder3;whiteSpace=wrap;html=1;boundedLbl=1;backgroundOutline=1;size=15;" vertex="1" parent="1">
          <mxGeometry x="345" y="960" width="50" height="60" as="geometry" />
        </mxCell>
        <mxCell id="zvotqxtV_hxMc-tcyJg2-63" value="account&lt;br&gt;table" style="shape=cylinder3;whiteSpace=wrap;html=1;boundedLbl=1;backgroundOutline=1;size=15;" vertex="1" parent="1">
          <mxGeometry x="140" y="960" width="50" height="60" as="geometry" />
        </mxCell>
        <mxCell id="zvotqxtV_hxMc-tcyJg2-68" value="Client/Broswer" style="text;html=1;strokeColor=none;fillColor=none;align=center;verticalAlign=middle;whiteSpace=wrap;rounded=0;fontStyle=1" vertex="1" parent="1">
          <mxGeometry x="215" y="660" width="130" height="30" as="geometry" />
        </mxCell>
        <mxCell id="zvotqxtV_hxMc-tcyJg2-69" value="" style="endArrow=classic;html=1;rounded=0;exitX=0.5;exitY=0;exitDx=0;exitDy=0;entryX=0.25;entryY=1;entryDx=0;entryDy=0;" edge="1" parent="1" source="zvotqxtV_hxMc-tcyJg2-51" target="zvotqxtV_hxMc-tcyJg2-49">
          <mxGeometry width="50" height="50" relative="1" as="geometry">
            <mxPoint x="295" y="770" as="sourcePoint" />
            <mxPoint x="230" y="873" as="targetPoint" />
          </mxGeometry>
        </mxCell>
        <mxCell id="zvotqxtV_hxMc-tcyJg2-72" value="" style="curved=1;endArrow=classic;html=1;rounded=0;exitX=0.5;exitY=0;exitDx=0;exitDy=0;entryX=1;entryY=1;entryDx=0;entryDy=0;" edge="1" parent="1" source="zvotqxtV_hxMc-tcyJg2-41" target="zvotqxtV_hxMc-tcyJg2-49">
          <mxGeometry width="50" height="50" relative="1" as="geometry">
            <mxPoint x="594" y="840" as="sourcePoint" />
            <mxPoint x="644" y="790" as="targetPoint" />
            <Array as="points">
              <mxPoint x="540" y="820" />
            </Array>
          </mxGeometry>
        </mxCell>
        <mxCell id="zvotqxtV_hxMc-tcyJg2-74" value="" style="curved=1;endArrow=classic;html=1;rounded=0;exitX=0.628;exitY=1.022;exitDx=0;exitDy=0;entryX=0.25;entryY=0;entryDx=0;entryDy=0;exitPerimeter=0;" edge="1" parent="1" source="zvotqxtV_hxMc-tcyJg2-49" target="zvotqxtV_hxMc-tcyJg2-41">
          <mxGeometry width="50" height="50" relative="1" as="geometry">
            <mxPoint x="496" y="881" as="sourcePoint" />
            <mxPoint x="420" y="780" as="targetPoint" />
            <Array as="points">
              <mxPoint x="460" y="840" />
            </Array>
          </mxGeometry>
        </mxCell>
        <mxCell id="zvotqxtV_hxMc-tcyJg2-76" value="" style="curved=1;endArrow=classic;html=1;rounded=0;exitX=0.991;exitY=0.418;exitDx=0;exitDy=0;entryX=0.006;entryY=0.409;entryDx=0;entryDy=0;exitPerimeter=0;entryPerimeter=0;" edge="1" parent="1" source="zvotqxtV_hxMc-tcyJg2-51" target="zvotqxtV_hxMc-tcyJg2-41">
          <mxGeometry width="50" height="50" relative="1" as="geometry">
            <mxPoint x="430" y="880" as="sourcePoint" />
            <mxPoint x="480" y="830" as="targetPoint" />
            <Array as="points">
              <mxPoint x="460" y="860" />
            </Array>
          </mxGeometry>
        </mxCell>
        <mxCell id="zvotqxtV_hxMc-tcyJg2-77" value="" style="curved=1;endArrow=classic;html=1;rounded=0;exitX=0;exitY=0.5;exitDx=0;exitDy=0;entryX=0.991;entryY=0.649;entryDx=0;entryDy=0;entryPerimeter=0;" edge="1" parent="1" source="zvotqxtV_hxMc-tcyJg2-41" target="zvotqxtV_hxMc-tcyJg2-51">
          <mxGeometry width="50" height="50" relative="1" as="geometry">
            <mxPoint x="440" y="960" as="sourcePoint" />
            <mxPoint x="525" y="960" as="targetPoint" />
            <Array as="points">
              <mxPoint x="470" y="920" />
            </Array>
          </mxGeometry>
        </mxCell>
      </root>
    </mxGraphModel>
  </diagram>
</mxfile>
